<svg version="1" xmlns="http://www.w3.org/2000/svg" width="208" height="208" viewBox="0 0 156.000000 156.000000"><path d="M74.5 8.5c-1.6 1.9-3 4.2-3.1 5.2-.1 1-.2 3-.3 4.5 0 1.8-.7 2.8-1.7 2.8-3.4 0-16.6 5.1-21.9 8.6l-5.7 3.6-3.2-3.1c-2.8-2.7-3.9-3.1-7.8-2.9-3.4.2-4.6.7-4.5 1.8 0 .8-.2 2.6-.6 4-.5 2 .1 3.3 2.8 6.2 2.2 2.3 3.3 4.2 2.9 5.2-.3.9-.9 1.6-1.3 1.6-1.4 0-8.1 15.4-9.2 21.3-1.2 6.1-1.6 6.3-8.6 5.7-1.5-.1-2.7.8-3.8 2.9-.8 1.7-2.2 3.1-3 3.1-.8 0-1.5.4-1.5 1 0 .5.6 1 1.3 1 .7 0 2.3 1.4 3.6 3 1.4 2 3 3 4.4 2.9 5.8-.5 6.5-.1 7.6 4.8 1.7 7.8 7.7 21.3 10.1 22.8 1.7 1.1 1.1 2.9-2.1 6.4-2.1 2.4-2.9 4-2.5 5.5.3 1.2.6 3 .6 4.1 0 1.7.8 2 5 2.3 4 .2 5.1-.1 6-1.7 2.2-4.2 4.7-4.5 10.2-1.1 6.4 4 14.1 7 19.8 7.9l4.5.6.3 5c.2 3.2.9 5.3 1.9 5.9.8.4 2.3 1.6 3.1 2.5 1.5 1.5 1.9 1.4 5-1.4 1.8-1.7 3.2-3.9 3.1-5-.6-5.7.1-7.5 2.6-7.5 5.2 0 17.5-5.2 25.1-10.5 1.9-1.4 2.3-1.3 5.4 1.5 2.7 2.4 4.1 2.9 7.9 2.9l4.6-.2v-4.8c0-3.9-.5-5.2-2.8-7.3-1.5-1.4-2.7-2.9-2.7-3.5 0-.5 1.6-3.6 3.5-6.8 3.6-6.1 7.5-16.9 7.5-20.9 0-2.5 1.3-2.9 7.2-2.5 2 .2 3.1-.5 4.5-2.6.9-1.5 2.2-3.1 2.7-3.4.5-.4-.4-2.3-1.9-4.3-2.1-2.8-3.5-3.7-5.4-3.6-6.3.4-6.6.3-7.9-5.5-1.6-6.8-4.6-13.7-8.3-19.2-1.6-2.3-2.9-4.4-2.9-4.7 0-.3 1.4-2.1 3.1-4 2.7-3.1 3-4 2.4-7.8-.7-4.3-.7-4.3-5-4.3-3.3 0-4.9.6-7 2.7-1.5 1.6-3.2 2.8-3.8 2.8-.5 0-3.3-1.4-6.1-3.1C103 25.4 91 21 87.3 21c-1.8 0-2.3-.6-2.4-2.8-.1-1.5-.3-3.4-.4-4.2-.1-.8-.3-2.1-.4-2.8 0-.7-1.2-1.8-2.6-2.4-1.4-.6-2.5-1.7-2.5-2.5 0-2-1.2-1.4-4.5 2.2zm7.5 4.7c0 1.4-.8 1.8-4 1.8-3.3 0-4-.3-4-2 0-1 .8-2.3 1.7-2.8 2.3-1.3 6.3.6 6.3 3zm0 4.5c0 .5-2 .9-4.5.9-2.4.1-4.2-.2-3.9-.7.6-1.1 8.4-1.2 8.4-.2zm-6.2 4.9c-2.9 1.5-3.5 4.1-1.8 7.4.9 1.7.4 2-4.8 3-6.1 1.3-13.8 4.8-18.8 8.6l-3.2 2.3-.6-2.5c-.4-1.3-1.8-3-3.1-3.6L41 36.7l4.7-3.4c6.1-4.4 11.2-6.7 19.3-8.7 3.6-1 7.6-2.1 9-2.5 4-1.4 4.7-1.1 1.8.5zM87 23.7c.8.4 1.9.5 2.3.4 3.2-.7 18.8 6.1 23.9 10.4 2.5 2.1 2.7 2.5 1 2.5-2.7 0-4.5 2.5-4 5.5l.5 2.5-3.4-3c-1.8-1.7-3.8-3-4.4-3-.6 0-.7-.5-.3-1.2.4-.6.3-.8-.3-.5-.5.3-3.7-.5-7-1.8-5.9-2.4-9.1-3.3-12.6-3.4-1.6-.1-1.6-.3-.3-2.4 1.3-1.9 1.3-2.6.2-4.9-1.3-2.4-1.2-2.5.8-2.1 1.1.3 2.8.7 3.6 1zm-6.1 3.7c-.3.3-1.1-.5-1.8-1.7-1.3-2.1-1.2-2.1.5-.5 1 1 1.6 2 1.3 2.2zm-2.5 2.5c-.2.3-1.2-.3-2.2-1.3-1.6-1.7-1.6-1.8.5-.5 1.2.7 2 1.5 1.7 1.8zm47.3-1.3c2.4.7 4 5.1 2.3 6.8-1.3 1.3-7.6-4.6-6.6-6.3.8-1.3 1.2-1.3 4.3-.5zm-90.3 1.2c.7 1.1-5.3 7.4-6.4 6.7-1.4-.9-1.2-4.9.2-6.3 1.3-1.3 5.4-1.6 6.2-.4zm88.2 7.1c2.2 3 1 2.6-2.5-1-1.7-1.7-3.1-3.3-3.1-3.5 0-.9 4.2 2.4 5.6 4.5zm-88.5-.1c-1.7 1.6-3.2 2.8-3.5 2.5-.2-.2 1-1.8 2.6-3.4 4-3.8 4.8-3.1.9.9zm36.4.1c.3 1 .5 3.1.5 4.7V46c.1 4.7-.6 13.9-1.1 14.4-.7.7-5.9-1.6-5.9-2.7 0-.4-2.9-3.7-6.5-7.3-3.6-3.6-6.3-7-5.9-7.5.8-1.3 6.1-4.1 11.4-6 6-2.2 6.8-2.2 7.5 0zm5.2-1.3c-.3.3-1.2.4-1.9.1-.8-.3-.5-.6.6-.6 1.1-.1 1.7.2 1.3.5zm5.6.1c-.7.2-2.1.2-3 0-1-.3-.4-.5 1.2-.5 1.7 0 2.4.2 1.8.5zm15.5 3.5c3.4 1.6 6.2 3.4 6.2 4 0 .6-2.7 3.8-6 7-3.3 3.3-6 6.3-6 6.8 0 .9-6.1 4.3-6.6 3.7-.3-.3-.5-4.1-.4-13.5 0-3.4-.1-6.6-.1-7-.1-.4-.1-1.7 0-3 .1-2.1.4-2.3 3.4-1.7 1.7.4 6 2 9.5 3.7zm23.1 1.2c-.2.2-1.3-.8-2.3-2.2l-1.9-2.7 2.4 2.2c1.2 1.2 2.1 2.4 1.8 2.7zm-81.7-2.6c-.6.5-1.9 1.7-2.8 2.8-.8 1-1.2 1.2-.8.4 1.2-2.6 2.6-4 3.8-4 .7 0 .7.3-.2.8zm39.7 3.1c-1.5.5-2.2-.6-1.4-1.9.6-.9 1-.9 1.6.1.5.8.4 1.5-.2 1.8zm38.1-1.5c0 .2-.9.6-2 .9-1.1.3-1.8.1-1.4-.4.5-.9 3.4-1.3 3.4-.5zm-73 3.1c0 .8-.3 1.6-.7 1.8-.5.3-.8-.5-.8-1.8s.3-2.1.8-1.8c.4.2.7 1 .7 1.8zm30.7 1.7c-.3.7-.5.2-.5-1.2s.2-1.9.5-1.3c.2.7.2 1.9 0 2.5zm8 0c-.3.7-.5.2-.5-1.2s.2-1.9.5-1.3c.2.7.2 1.9 0 2.5zM130.3 57c3.2 7.7 6.2 19.9 4.4 18.1-1.4-1.4-6-1.4-7.4 0-.9.9-1.3.5-1.8-1.7-2.1-10.2-6.2-19.2-11.1-24.5l-2.4-2.6 2.9.5c2.2.3 3.3-.2 4.7-2.1l1.9-2.4 3 4.1c1.7 2.3 4.3 7 5.8 10.6zm-88.2-9.3c1.6-.4 1.3.4-1.7 4.4-3.9 5.4-6.9 12.2-8.5 20-1 4.7-1.2 4.8-3.1 3.5-1.5-1-2.7-1.2-4.5-.5-2.3.9-2.4.8-1.9-3.4 1-7.8 5.5-19.1 10.2-25.4l2.4-3.2 2.6 2.6c1.6 1.6 3.2 2.3 4.5 2zm8.9-2.4c0 .2-1.7 1.9-3.7 3.8l-3.8 3.4 3.4-3.8c3.3-3.4 4.1-4.2 4.1-3.4zm58.6 2.9l2.9 3.3-3.2-2.9c-3.1-2.8-3.8-3.6-3-3.6.2 0 1.6 1.5 3.3 3.2zm-53.1 2.9c1.4 2.2-.3 1.8-2.6-.7-2.3-2.5-2.3-2.6-.2-1.5 1.2.6 2.5 1.6 2.8 2.2zm18.4-.4c0 2.5-.1 2.5-.8.8-.5-1.1-.7-2.3-.4-2.8.8-1.4 1.3-.7 1.2 2zm27.6-.7c-1 1.1-2.1 1.7-2.4 1.4-.3-.3.3-1.2 1.3-2 2.8-2 3.2-1.7 1.1.6zm-19.8 2.2c-.3.7-.5.2-.5-1.2s.2-1.9.5-1.3c.2.7.2 1.9 0 2.5zM107 51c0 .5-.7 1-1.6 1-.8 0-1.2-.5-.9-1 .3-.6 1-1 1.6-1 .5 0 .9.4.9 1zm-52.9 1.7c1.3 1.7 1.2 1.7-.4.4-1.5-1.2-2-1.2-2.6-.2-.6 1-1 .9-1.4-.3-.9-2.2 2.7-2.1 4.4.1zm25.2 1c-.3.7-.9 1-1.4.7-1.4-.8-1.1-2.1.5-2.1.8 0 1.2.6.9 1.4zm29.1 1.8c-.9 1.4-2.1 2.5-2.7 2.5-.6 0 0-1.1 1.3-2.5s2.5-2.5 2.7-2.5c.2 0-.4 1.1-1.3 2.5zm10.1 4.3c3.3 6.5 4.3 12.1 2.4 12.3-4.5.5-18.8.6-21.1.2-2.5-.4-2.7-.7-1.7-2.6 1.7-3.3 16.2-16.9 17-16 .4.5 1.9 3.2 3.4 6.1zm-67.6 1.1c6.9 6.9 9.8 10.8 8.7 11.8-.8.8-23.1.8-24.4-.1-2.3-1.4 4.6-18.6 7.4-18.6.7 0 4.4 3.1 8.3 6.9zm-.8-4.2c1.3 1.6 1.2 1.7-.3.4-1-.7-1.8-1.5-1.8-1.7 0-.8.8-.3 2.1 1.3zm12.3.8c.9 1.4 1.5 2.5 1.3 2.5-.2 0-1.4-1.1-2.7-2.5-1.3-1.4-1.9-2.5-1.3-2.5.6 0 1.8 1.1 2.7 2.5zM97 55.4c0 .2-.7.9-1.5 1.6-1.3 1.1-1.4 1-.9-.4.5-1.4 2.4-2.3 2.4-1.2zm1 3.1c-1 1.2-1 1.5.1 1.5.9 0 1 .3.2 1.1-2 2-3.4.6-1.8-1.9.9-1.2 1.9-2.2 2.2-2.2.3 0 0 .7-.7 1.5zm-15.7.2c.3.5-1.4.8-3.8.8s-4.1-.3-3.9-.7c.7-1 7.1-1 7.7-.1zM61 61.1c0 .5-.7.9-1.5.9-1.5 0-2-1.2-.9-2.3.8-.8 2.4.1 2.4 1.4zm41.5.8c-.3.6-1.1 1.1-1.7 1.1-.6 0-.6-.6.2-1.5 1.4-1.7 2.6-1.3 1.5.4zm-46.5.6c1.1 1.3 1 1.4-.4.9-.9-.3-1.6-1-1.6-1.5 0-1.3.6-1.1 2 .6zm10.5.3c-.6.4-2.1 2-3.3 3.6C62 68 61 68.7 61 67.9c0-1.6 4-5.9 5.4-5.9.8 0 .8.3.1.8zm8.5.2c-.8.5-1.9 1-2.5 1-.5 0-.3-.5.5-1s2-1 2.5-1c.6 0 .3.5-.5 1zm18.5 1.6c1.4 1.5 2.5 3.2 2.5 3.8 0 .6-.7.1-1.5-1.1-.9-1.2-2.6-2.9-3.8-3.8-1.2-.8-1.6-1.5-.9-1.5.7 0 2.4 1.2 3.7 2.6zM70 64.3c0 .2-1.7 1.9-3.7 3.8l-3.8 3.4 3.4-3.8c3.3-3.4 4.1-4.2 4.1-3.4zm10.9 2.4c.7 1.4 1.2 1.5 2.5.4 1.9-1.6 3.9-.4 3.3 2-.4 1.5 0 1.9 1.8 1.9 2.6 0 3.9 2.2 2.2 3.9-.9.9-.6 1.6 1.2 3l2.4 1.8-2.3 1.6c-1.9 1.3-2.1 1.9-1.1 3.1 1.6 2 .4 3.9-2 3.3-1.5-.4-1.9 0-1.9 2.4 0 3.1-1 3.5-4.1 1.9-1.5-.8-1.9-.7-1.9.4 0 2.6-2.3 3-4.1.7-1-1.2-2-1.7-2.4-1.1-.3.5-1.5 1-2.7 1-1.6 0-1.9-.5-1.5-2.6.4-2.1.1-2.5-1.4-2.1-1 .3-2.3-.1-2.9-.8-.8-1-.3-1.2 2.2-1.1 2.5.1 3.3.6 3.4 2.1.3 3.8.5 4 1.8 2.2 1.5-1.9 4.6-1.3 4.6.9 0 .8.5 1.4 1 1.4.6 0 1-.6 1-1.4 0-.8.7-1.6 1.5-2 .8-.3 1.5-.1 1.5.4 0 .6.7 1 1.5 1 .9 0 1.4-.8 1.2-2.3-.2-1.7.3-2.2 2.1-2 2.4.3 3.1-2.1 1-3.1-.9-.3-.6-1.1 1-2.2l2.4-1.8-2.4-1.9c-1.6-1.2-1.9-2-1-2.4 2.1-.8 1.3-3-1-2.9-1.8.1-2.3-.4-2.2-2.2.1-2.3-1-2.9-2.1-1.2-1.1 1.8-3.2 1.1-3.9-1.3l-.6-2.2-1.8 2.3c-1.7 2.1-2 2.2-4.6.9-1.7-.9-2.3-1.8-1.6-2.2.6-.4 1.8-.1 2.6.6 1.3 1.1 1.8 1 2.5-.4.6-.9 1.6-1.7 2.4-1.7.8 0 1.8.8 2.4 1.7zm10.1.8c1.3 1.4 2.1 2.5 1.8 2.5-.2 0-1.5-1.1-2.8-2.5-1.3-1.4-2.1-2.5-1.8-2.5.2 0 1.5 1.1 2.8 2.5zM71.5 72c-.4.6-1.5.8-2.6.5-1.3-.4-1.9-.2-1.9.9 0 .9.5 1.6 1 1.6 1.8 0 1 2.2-1 2.7-2.5.7-2.5 1.4 0 3.6 2 1.7 1.9 3.7-.1 3.7-.6 0-.8-.4-.5-.8.3-.5-.5-1.7-1.6-2.7l-2.2-1.8 2.1-1.7c1.6-1.3 1.9-2 1.1-3.4-1.1-2 .7-3.9 3-3.1.6.2 1.2-.3 1.2-1.2 0-1.3.3-1.4 1.1-.6.6.6.8 1.6.4 2.3zm76.6 5.1c1.2 2.4-1.5 7.1-3.7 6.2-1.3-.5-1.8-6.4-.7-8.5.6-1.1 3.3.3 4.4 2.3zM13.8 80.3c.4 5.6-1 6.1-4.6 1.5-1.1-1.4-1.1-2.1.4-4.3 2.4-3.6 3.8-2.6 4.2 2.8zm3.9-3.1c-.3.8-.6.5-.6-.6-.1-1.1.2-1.7.5-1.3.3.3.4 1.2.1 1.9zm17 4.5c-.2 1.6-.4.5-.4-2.2 0-2.8.2-4 .4-2.8.2 1.3.2 3.5 0 5zm9-6.1c-.3.3-1.2.4-1.9.1-.8-.3-.5-.6.6-.6 1.1-.1 1.7.2 1.3.5zm7.6.1c-.7.2-1.9.2-2.5 0-.7-.3-.2-.5 1.2-.5s1.9.2 1.3.5zm7.7.3c0 .5-.2 1-.4 1-.3 0-.8-.5-1.1-1-.3-.6-.1-1 .4-1 .6 0 1.1.4 1.1 1zm41 4.1c0 2.1-.3 3.9-.7 3.9-.5 0-.8-2-.8-4.4 0-2.4.3-4.2.7-4 .5.3.8 2.3.8 4.5zm8.3-4.4c-.7.2-2.1.2-3 0-1-.3-.4-.5 1.2-.5 1.7 0 2.4.2 1.8.5zm9 0c-.7.2-2.1.2-3 0-1-.3-.4-.5 1.2-.5 1.7 0 2.4.2 1.8.5zm5.4 5.5c-.2 1.3-.4.3-.4-2.2s.2-3.5.4-2.3c.2 1.3.2 3.3 0 4.5zm18.3-1c0 2.3-.3 3.8-.6 3.5-.9-.9-1.1-8.6-.1-8 .4.2.7 2.3.7 4.5zm-60.2-.4c.3 1.8-.1 2.2-2.2 2.2-1.9 0-2.6-.5-2.6-1.8 0-3.9 4.3-4.3 4.8-.4zm48.8-.8c0 1.2-.4 1.6-.9 1.1s-.6-1.4-.3-2c1-1.5 1.2-1.4 1.2.9zm6.6 2.8c-.6 1.5-1.4 4.7-1.8 7.1-1.1 7.2-4.1 15.1-8.4 21.6-2.2 3.4-4 6.6-4 7.2 0 .5-1 1.8-2.2 2.9-2.3 1.9-2.3 1.9-.5-.2.9-1.1 1.7-2.9 1.7-3.9 0-2.4-2.8-5.5-5.1-5.5-1.5 0-1.1-1 2.1-5.8 2.7-3.9 4.7-8.5 6.3-14.6 1.3-4.9 2.7-8.5 3-7.9.4.6 1.8 1.3 3.2 1.5 2.8.6 5.4-2.1 5.6-5.7 0-1.1.3-1.4.6-.7s0 2.5-.5 4zm-78-.8c.3 1.6.1 3-.4 3-.4 0-.8-1.4-.8-3 0-1.7.2-3 .4-3s.6 1.3.8 3zm47.5-.4c-.9.9-2.8-.6-2.1-1.8.4-.6 1-.6 1.7.1.6.6.8 1.3.4 1.7zm13.8-1.6c.3.5-.1 1-.9 1-.9 0-1.6-.5-1.6-1 0-.6.4-1 .9-1 .6 0 1.3.4 1.6 1zM40 80c0 .5-.5 1-1.1 1-.5 0-.7-.5-.4-1 .3-.6.8-1 1.1-1 .2 0 .4.4.4 1zm14 0c0 .5-.7 1-1.5 1s-1.5-.5-1.5-1c0-.6.7-1 1.5-1s1.5.4 1.5 1zm80-.6c0 .2-.8 1-1.7 1.7-1.6 1.3-1.7 1.2-.4-.4 1.3-1.6 2.1-2.1 2.1-1.3zM28 81.5c-.7.8-1.7 1.5-2.3 1.5-.6 0-.2-.7.9-1.5 2.5-1.9 3-1.9 1.4 0zm-10.3 2.7c-.3.8-.6.5-.6-.6-.1-1.1.2-1.7.5-1.3.3.3.4 1.2.1 1.9zm18.9 17.3c.9 1.6 3 4.7 4.6 6.7l2.9 3.8h-2.5c-4.8 0-6.1 8.1-1.5 9.5 1.1.4 1.8.9 1.5 1.2-.8.9-5.6-2.6-5.6-4 0-.7-1.2-2.9-2.6-4.8-7.3-9.6-15.1-35.2-8.8-28.9.6.6 1.8.5 3.4-.3 2.5-1.3 2.5-1.2 4.7 6.3 1.3 4.1 3 8.8 3.9 10.5zm13.9-16.7c-.3.3-1.1 0-1.8-.7-.9-1-.8-1.1.6-.5 1 .3 1.5.9 1.2 1.2zm58.8-1.1c-.7.2-2.1.2-3 0-1-.3-.4-.5 1.2-.5 1.7 0 2.4.2 1.8.5zm7 0c-.7.2-1.9.2-2.5 0-.7-.3-.2-.5 1.2-.5s1.9.2 1.3.5zm-8.3 2.5c3.9-.4 14.2-.3 14.6 0 .6.7-2.6 10.8-4.7 15-1.1 2.1-2.5 3.8-3.2 3.8-1.4 0-17.7-15.4-17.7-16.8 0-1.3 5.3-3 7.5-2.4 1.1.3 2.7.5 3.5.4zm-49.2.7c.6 0 1.2.7 1.2 1.5 0 1.5-15.5 17.6-17 17.6-2.7 0-10.1-17.7-7.9-19 .9-.6 18.8-.7 23.7-.1zM67 97.6c0 .4-1.3-.5-3-2.1-1.6-1.6-3-3.3-3-3.8s1.4.5 3 2.1c1.7 1.7 3 3.4 3 3.8zm25-6.2c0 .2-.8 1-1.7 1.7-1.6 1.3-1.7 1.2-.4-.4 1.3-1.6 2.1-2.1 2.1-1.3zm3.4.8c-1.3 2.4-3.7 4.8-4.7 4.8-.6 0 .2-1.4 1.8-3 3.1-3.2 4.1-3.8 2.9-1.8zm-21.3 4.6c-.7.2-1.8-.1-2.3-.6-.8-.8-.4-.9 1.3-.5 1.3.4 1.8.8 1 1.1zm29.4 1.2c1.2 1.9-1.2 1-3.1-1.1-1.9-2.2-1.9-2.2.3-1 1.2.6 2.5 1.6 2.8 2.1zm-45.6-1.7c-.2.1-1.3.9-2.4 1.7-1.9 1.4-1.9 1.4-.6-.3.7-.9 1.8-1.7 2.4-1.7.6 0 .8.1.6.3zm3.5 2.2c-.4.8-1 1.2-1.5.9-.6-.3-1.8 0-2.7.7-1.3 1.1-1.2.8.2-.9 2.2-2.5 4.8-3 4-.7zM98 98c0 .5-.4 1-.9 1-.6 0-1.3-.5-1.6-1-.3-.6.1-1 .9-1 .9 0 1.6.4 1.6 1zm-9.4 1.2c5.7 4.8 15.4 15.5 15.2 16.7-.3 1.8-12.2 8-15.5 8-2.8.1-3.1-1.3-2.8-12.4.3-14.9.2-14.6 3.1-12.3zm-16.5 2c.5 8.2.3 21.2-.3 22.1-.8 1.3-7.2-.4-14.1-3.9-5.8-3-5.7-3.4 4.4-13.4 7.3-7.3 9.8-8.5 10-4.8zm-9.3 1c-.8 1.2-2.1 2.4-2.9 2.6-.8.3-.3-.7 1-2.2 3-3.2 3.9-3.4 1.9-.4zm18.5-1.5c-1.3.2-3.3.2-4.5 0-1.3-.2-.3-.4 2.2-.4s3.5.2 2.3.4zm16.7 4c0 .3-.9-.2-2-1.2s-2-2.2-2-2.7c0-.4.9.1 2 1.2 1.1 1.1 2 2.3 2 2.7zm10.5-1.7c1.6 1.7 1.6 2 .3 1.5-.9-.4-1.9-1.3-2.2-2.1-.7-1.9-.2-1.8 1.9.6zm-.5 5.1c0 .5-.7.6-1.5.3-.8-.4-1.2-1-.9-1.5.3-.6.2-1.6-.3-2.2-.4-.7 0-.4 1 .6.9 1.1 1.7 2.3 1.7 2.8zm-28-1.5c0 .8-.4 1.2-1 .9-.5-.3-1-1.3-1-2.1s.5-1.2 1-.9c.6.3 1 1.3 1 2.1zm-25.4.3c-.8 1.2-4.6 2.1-4.6 1.1 0-.5 1-1.1 2.3-1.3 1.2-.2 2.3-.5 2.5-.6.2 0 .1.3-.2.8zm20.9 1.5c0 1.5-.4 2.1-.9 1.6s-.6-1.6-.3-2.4c.9-2.2 1.2-2 1.2.8zm-18.5.1c-.7.9-1.5 1.3-1.7 1.1-.7-.7.7-2.6 1.9-2.6.6 0 .6.6-.2 1.5zm26.5-.5c.3.5.1 1-.4 1-.6 0-1.1-.5-1.1-1 0-.6.2-1 .4-1 .3 0 .8.4 1.1 1zm21.1 2.1c.4.8.1.8-1.4 0-1.2-.6-2.4-1.6-2.8-2.2-.4-.8-.1-.8 1.4 0 1.2.6 2.4 1.6 2.8 2.2zm7.5-1.2c-.6 1-2.3 2.6-3.8 3.6-2.6 1.6-2.5 1.5.6-1.9 3.9-4 4.6-4.4 3.2-1.7zm-63.5 2.3c2.9 3.1 2.9 3.1.2 1.2-1.5-1-2.9-2.5-3.2-3.2-.8-1.8-.2-1.5 3 2zm62 4.4c-.8 2.1.9 5.1 3.4 5.9 2.5.8 1.8 1.5-6 6.6-5.7 3.7-16.7 7.9-20.8 7.9-1.3 0-3.2.5-4.4 1.1-1.9 1-1.9.9.3-2 2-2.8 2.1-3.2.6-5.4l-1.5-2.3 5.9-1.3c6.6-1.3 18.4-7.1 20.8-10.1 1.9-2.4 2.5-2.5 1.7-.4zm6.8-.7c.4.5-.3.7-1.4.4-2.3-.6-2.6-1.3-.6-1.3.8 0 1.7.4 2 .9zm-72.6 2.6c-.3.3-.9-.2-1.2-1.2-.6-1.4-.5-1.5.5-.6.7.7 1 1.5.7 1.8zm12.1 4.3c3.4 2 14.2 5.3 17.4 5.4 2.5.1 2.6.3 1.2 1.8-1.7 1.9-2 5.1-.5 6.6 1.6 1.6-8.8 0-15.5-2.4-3.3-1.2-7.2-3.1-8.7-4.2-1.5-1.1-3.1-2-3.6-2s-1.7-.9-2.6-1.9c-1.6-1.8-1.6-2 .9-4.5 1.6-1.6 2.4-3.3 2.1-4.2-.4-1 .9-.5 3.1 1.3 2.1 1.5 4.9 3.4 6.2 4.1zm59.1-3.5c1.1.5.9.6-.4.4-1.1-.1-2.1-.9-2.3-1.7-.3-1-.2-1.1.4-.4.4.6 1.5 1.4 2.3 1.7zm-73.5 1.5c-.3.3-1.1 0-1.8-.7-.9-1-.8-1.1.6-.5 1 .3 1.5.9 1.2 1.2zm37.5-.3c0 .8-.4 1.5-1 1.5-.5 0-1-.7-1-1.5s.5-1.5 1-1.5c.6 0 1 .7 1 1.5zm43.1 3.7c-4.3 3.9-5.6 3.5-1.8-.5 1.8-1.8 3.6-3.1 4.1-2.8.5.2-.5 1.7-2.3 3.3zm-87.8-.8c1.3 1.2 3 2.5 3.8 2.8.8.3 1 .9.6 1.4-.4.4-2.4-.9-4.5-2.9-2-2-3.4-3.7-3-3.7.4 0 1.8 1.1 3.1 2.4zm94.1 4c-.8 2.6-2.2 3.6-5.1 3.6-3 0-2.9-1.8.4-5.2 2-2.1 2.9-2.5 4-1.6.8.6 1.1 1.9.7 3.2zM36 129.7c0 1.4-1.3 1.6-4.7.7-2.3-.6-3.6-4.7-2-6.3 1.2-1.2 6.7 3.4 6.7 5.6zm42.9-5.7c-.6.5-1.8.6-2.6.3-1.9-.8-1.6-1.1 1.3-1.1 1.7 0 2.2.3 1.3.8zm3.1 8.5c0 .8-.3 1.6-.7 1.8-.5.3-.8-.5-.8-1.8s.3-2.1.8-1.8c.4.2.7 1 .7 1.8zm2 8.7c0 1-8.7 1-9.3 0-.3-.4 1.7-.7 4.4-.7s4.9.3 4.9.7zm-.6 4.6c-.2 2.7-.5 3.1-2.4 3.7-2.3.7-6-1-6-3 0-.7 1.2-1.5 2.8-1.7 4.1-.5 5.7-.2 5.6 1z"/></svg>