<?xml version="1.0" standalone="no"?>
<!DOCTYPE svg PUBLIC "-//W3C//DTD SVG 20010904//EN"
 "http://www.w3.org/TR/2001/REC-SVG-20010904/DTD/svg10.dtd">
<svg version="1.0" xmlns="http://www.w3.org/2000/svg"
 width="156.000000pt" height="156.000000pt" viewBox="0 0 156.000000 156.000000"
 preserveAspectRatio="xMidYMid meet">
<metadata>
Created by potrace 1.11, written by Peter Selinger 2001-2013
</metadata>
<g transform="translate(0.000000,156.000000) scale(0.100000,-0.100000)"
fill="#000000" stroke="none">
<path d="M745 1475 c-16 -19 -30 -42 -31 -52 -1 -10 -2 -30 -3 -45 0 -18 -7
-28 -17 -28 -34 0 -166 -51 -219 -86 l-57 -36 -32 31 c-28 27 -39 31 -78 29
-34 -2 -46 -7 -45 -18 0 -8 -2 -26 -6 -40 -5 -20 1 -33 28 -62 22 -23 33 -42
29 -52 -3 -9 -9 -16 -13 -16 -14 0 -81 -154 -92 -213 -12 -61 -16 -63 -86 -57
-15 1 -27 -8 -38 -29 -8 -17 -22 -31 -30 -31 -8 0 -15 -4 -15 -10 0 -5 6 -10
13 -10 7 0 23 -14 36 -30 14 -20 30 -30 44 -29 58 5 65 1 76 -48 17 -78 77
-213 101 -228 17 -11 11 -29 -21 -64 -21 -24 -29 -40 -25 -55 3 -12 6 -30 6
-41 0 -17 8 -20 50 -23 40 -2 51 1 60 17 22 42 47 45 102 11 64 -40 141 -70
198 -79 l45 -6 3 -50 c2 -32 9 -53 19 -59 8 -4 23 -16 31 -25 15 -15 19 -14
50 14 18 17 32 39 31 50 -6 57 1 75 26 75 52 0 175 52 251 105 19 14 23 13 54
-15 27 -24 41 -29 79 -29 l46 2 0 48 c0 39 -5 52 -28 73 -15 14 -27 29 -27 35
0 5 16 36 35 68 36 61 75 169 75 209 0 25 13 29 72 25 20 -2 31 5 45 26 9 15
22 31 27 34 5 4 -4 23 -19 43 -21 28 -35 37 -54 36 -63 -4 -66 -3 -79 55 -16
68 -46 137 -83 192 -16 23 -29 44 -29 47 0 3 14 21 31 40 27 31 30 40 24 78
-7 43 -7 43 -50 43 -33 0 -49 -6 -70 -27 -15 -16 -32 -28 -38 -28 -5 0 -33 14
-61 31 -56 35 -176 79 -213 79 -18 0 -23 6 -24 28 -1 15 -3 34 -4 42 -1 8 -3
21 -4 28 0 7 -12 18 -26 24 -14 6 -25 17 -25 25 0 20 -12 14 -45 -22z m75 -47
c0 -14 -8 -18 -40 -18 -33 0 -40 3 -40 20 0 10 8 23 17 28 23 13 63 -6 63 -30z
m0 -45 c0 -5 -20 -9 -45 -9 -24 -1 -42 2 -39 7 6 11 84 12 84 2z m-62 -49
c-29 -15 -35 -41 -18 -74 9 -17 4 -20 -48 -30 -61 -13 -138 -48 -188 -86 l-32
-23 -6 25 c-4 13 -18 30 -31 36 l-25 11 47 34 c61 44 112 67 193 87 36 10 76
21 90 25 40 14 47 11 18 -5z m112 -11 c8 -4 19 -5 23 -4 32 7 188 -61 239
-104 25 -21 27 -25 10 -25 -27 0 -45 -25 -40 -55 l5 -25 -34 30 c-18 17 -38
30 -44 30 -6 0 -7 5 -3 12 4 6 3 8 -3 5 -5 -3 -37 5 -70 18 -59 24 -91 33
-126 34 -16 1 -16 3 -3 24 13 19 13 26 2 49 -13 24 -12 25 8 21 11 -3 28 -7
36 -10z m-61 -37 c-3 -3 -11 5 -18 17 -13 21 -12 21 5 5 10 -10 16 -20 13 -22z
m-25 -25 c-2 -3 -12 3 -22 13 -16 17 -16 18 5 5 12 -7 20 -15 17 -18z m473 13
c24 -7 40 -51 23 -68 -13 -13 -76 46 -66 63 8 13 12 13 43 5z m-903 -12 c7
-11 -53 -74 -64 -67 -14 9 -12 49 2 63 13 13 54 16 62 4z m882 -71 c22 -30 10
-26 -25 10 -17 17 -31 33 -31 35 0 9 42 -24 56 -45z m-885 1 c-17 -16 -32 -28
-35 -25 -2 2 10 18 26 34 40 38 48 31 9 -9z m364 -1 c3 -10 5 -31 5 -47 0 -16
0 -36 0 -44 1 -47 -6 -139 -11 -144 -7 -7 -59 16 -59 27 0 4 -29 37 -65 73
-36 36 -63 70 -59 75 8 13 61 41 114 60 60 22 68 22 75 0z m52 13 c-3 -3 -12
-4 -19 -1 -8 3 -5 6 6 6 11 1 17 -2 13 -5z m56 -1 c-7 -2 -21 -2 -30 0 -10 3
-4 5 12 5 17 0 24 -2 18 -5z m155 -35 c34 -16 62 -34 62 -40 0 -6 -27 -38 -60
-70 -33 -33 -60 -63 -60 -68 0 -9 -61 -43 -66 -37 -3 3 -5 41 -4 135 0 34 -1
66 -1 70 -1 4 -1 17 0 30 1 21 4 23 34 17 17 -4 60 -20 95 -37z m231 -12 c-2
-2 -13 8 -23 22 l-19 27 24 -22 c12 -12 21 -24 18 -27z m-817 26 c-6 -5 -19
-17 -28 -28 -8 -10 -12 -12 -8 -4 12 26 26 40 38 40 7 0 7 -3 -2 -8z m397 -31
c-15 -5 -22 6 -14 19 6 9 10 9 16 -1 5 -8 4 -15 -2 -18z m381 15 c0 -2 -9 -6
-20 -9 -11 -3 -18 -1 -14 4 5 9 34 13 34 5z m-730 -31 c0 -8 -3 -16 -7 -18 -5
-3 -8 5 -8 18 0 13 3 21 8 18 4 -2 7 -10 7 -18z m307 -17 c-3 -7 -5 -2 -5 12
0 14 2 19 5 13 2 -7 2 -19 0 -25z m80 0 c-3 -7 -5 -2 -5 12 0 14 2 19 5 13 2
-7 2 -19 0 -25z m476 -128 c32 -77 62 -199 44 -181 -14 14 -60 14 -74 0 -9 -9
-13 -5 -18 17 -21 102 -62 192 -111 245 l-24 26 29 -5 c22 -3 33 2 47 21 l19
24 30 -41 c17 -23 43 -70 58 -106z m-882 93 c16 4 13 -4 -17 -44 -39 -54 -69
-122 -85 -200 -10 -47 -12 -48 -31 -35 -15 10 -27 12 -45 5 -23 -9 -24 -8 -19
34 10 78 55 191 102 254 l24 32 26 -26 c16 -16 32 -23 45 -20z m89 24 c0 -2
-17 -19 -37 -38 l-38 -34 34 38 c33 34 41 42 41 34z m586 -29 l29 -33 -32 29
c-31 28 -38 36 -30 36 2 0 16 -15 33 -32z m-531 -29 c14 -22 -3 -18 -26 7 -23
25 -23 26 -2 15 12 -6 25 -16 28 -22z m184 4 c0 -25 -1 -25 -8 -8 -5 11 -7 23
-4 28 8 14 13 7 12 -20z m276 7 c-10 -11 -21 -17 -24 -14 -3 3 3 12 13 20 28
20 32 17 11 -6z m-198 -22 c-3 -7 -5 -2 -5 12 0 14 2 19 5 13 2 -7 2 -19 0
-25z m243 12 c0 -5 -7 -10 -16 -10 -8 0 -12 5 -9 10 3 6 10 10 16 10 5 0 9 -4
9 -10z m-529 -17 c13 -17 12 -17 -4 -4 -15 12 -20 12 -26 2 -6 -10 -10 -9 -14
3 -9 22 27 21 44 -1z m252 -10 c-3 -7 -9 -10 -14 -7 -14 8 -11 21 5 21 8 0 12
-6 9 -14z m291 -18 c-9 -14 -21 -25 -27 -25 -6 0 0 11 13 25 13 14 25 25 27
25 2 0 -4 -11 -13 -25z m101 -43 c33 -65 43 -121 24 -123 -45 -5 -188 -6 -211
-2 -25 4 -27 7 -17 26 17 33 162 169 170 160 4 -5 19 -32 34 -61z m-676 -11
c69 -69 98 -108 87 -118 -8 -8 -231 -8 -244 1 -23 14 46 186 74 186 7 0 44
-31 83 -69z m-8 42 c13 -16 12 -17 -3 -4 -10 7 -18 15 -18 17 0 8 8 3 21 -13z
m123 -8 c9 -14 15 -25 13 -25 -2 0 -14 11 -27 25 -13 14 -19 25 -13 25 6 0 18
-11 27 -25z m346 21 c0 -2 -7 -9 -15 -16 -13 -11 -14 -10 -9 4 5 14 24 23 24
12z m10 -31 c-10 -12 -10 -15 1 -15 9 0 10 -3 2 -11 -20 -20 -34 -6 -18 19 9
12 19 22 22 22 3 0 0 -7 -7 -15z m-157 -2 c3 -5 -14 -8 -38 -8 -24 0 -41 3
-39 7 7 10 71 10 77 1z m-213 -24 c0 -5 -7 -9 -15 -9 -15 0 -20 12 -9 23 8 8
24 -1 24 -14z m415 -8 c-3 -6 -11 -11 -17 -11 -6 0 -6 6 2 15 14 17 26 13 15
-4z m-465 -6 c11 -13 10 -14 -4 -9 -9 3 -16 10 -16 15 0 13 6 11 20 -6z m105
-3 c-6 -4 -21 -20 -33 -36 -12 -16 -22 -23 -22 -15 0 16 40 59 54 59 8 0 8 -3
1 -8z m85 -2 c-8 -5 -19 -10 -25 -10 -5 0 -3 5 5 10 8 5 20 10 25 10 6 0 3 -5
-5 -10z m185 -16 c14 -15 25 -32 25 -38 0 -6 -7 -1 -15 11 -9 12 -26 29 -38
38 -12 8 -16 15 -9 15 7 0 24 -12 37 -26z m-235 3 c0 -2 -17 -19 -37 -38 l-38
-34 34 38 c33 34 41 42 41 34z m109 -24 c7 -14 12 -15 25 -4 19 16 39 4 33
-20 -4 -15 0 -19 18 -19 26 0 39 -22 22 -39 -9 -9 -6 -16 12 -30 l24 -18 -23
-16 c-19 -13 -21 -19 -11 -31 16 -20 4 -39 -20 -33 -15 4 -19 0 -19 -24 0 -31
-10 -35 -41 -19 -15 8 -19 7 -19 -4 0 -26 -23 -30 -41 -7 -10 12 -20 17 -24
11 -3 -5 -15 -10 -27 -10 -16 0 -19 5 -15 26 4 21 1 25 -14 21 -10 -3 -23 1
-29 8 -8 10 -3 12 22 11 25 -1 33 -6 34 -21 3 -38 5 -40 18 -22 15 19 46 13
46 -9 0 -8 5 -14 10 -14 6 0 10 6 10 14 0 8 7 16 15 20 8 3 15 1 15 -4 0 -6 7
-10 15 -10 9 0 14 8 12 23 -2 17 3 22 21 20 24 -3 31 21 10 31 -9 3 -6 11 10
22 l24 18 -24 19 c-16 12 -19 20 -10 24 21 8 13 30 -10 29 -18 -1 -23 4 -22
22 1 23 -10 29 -21 12 -11 -18 -32 -11 -39 13 l-6 22 -18 -23 c-17 -21 -20
-22 -46 -9 -17 9 -23 18 -16 22 6 4 18 1 26 -6 13 -11 18 -10 25 4 6 9 16 17
24 17 8 0 18 -8 24 -17z m101 -8 c13 -14 21 -25 18 -25 -2 0 -15 11 -28 25
-13 14 -21 25 -18 25 2 0 15 -11 28 -25z m-195 -45 c-4 -6 -15 -8 -26 -5 -13
4 -19 2 -19 -9 0 -9 5 -16 10 -16 18 0 10 -22 -10 -27 -25 -7 -25 -14 0 -36
20 -17 19 -37 -1 -37 -6 0 -8 4 -5 8 3 5 -5 17 -16 27 l-22 18 21 17 c16 13
19 20 11 34 -11 20 7 39 30 31 6 -2 12 3 12 12 0 13 3 14 11 6 6 -6 8 -16 4
-23z m766 -51 c12 -24 -15 -71 -37 -62 -13 5 -18 64 -7 85 6 11 33 -3 44 -23z
m-1343 -32 c4 -56 -10 -61 -46 -15 -11 14 -11 21 4 43 24 36 38 26 42 -28z
m39 31 c-3 -8 -6 -5 -6 6 -1 11 2 17 5 13 3 -3 4 -12 1 -19z m170 -45 c-2 -16
-4 -5 -4 22 0 28 2 40 4 28 2 -13 2 -35 0 -50z m90 61 c-3 -3 -12 -4 -19 -1
-8 3 -5 6 6 6 11 1 17 -2 13 -5z m76 -1 c-7 -2 -19 -2 -25 0 -7 3 -2 5 12 5
14 0 19 -2 13 -5z m77 -3 c0 -5 -2 -10 -4 -10 -3 0 -8 5 -11 10 -3 6 -1 10 4
10 6 0 11 -4 11 -10z m410 -41 c0 -21 -3 -39 -7 -39 -5 0 -8 20 -8 44 0 24 3
42 7 40 5 -3 8 -23 8 -45z m83 44 c-7 -2 -21 -2 -30 0 -10 3 -4 5 12 5 17 0
24 -2 18 -5z m90 0 c-7 -2 -21 -2 -30 0 -10 3 -4 5 12 5 17 0 24 -2 18 -5z
m54 -55 c-2 -13 -4 -3 -4 22 0 25 2 35 4 23 2 -13 2 -33 0 -45z m183 10 c0
-23 -3 -38 -6 -35 -9 9 -11 86 -1 80 4 -2 7 -23 7 -45z m-602 4 c3 -18 -1 -22
-22 -22 -19 0 -26 5 -26 18 0 39 43 43 48 4z m488 8 c0 -12 -4 -16 -9 -11 -5
5 -6 14 -3 20 10 15 12 14 12 -9z m66 -28 c-6 -15 -14 -47 -18 -71 -11 -72
-41 -151 -84 -216 -22 -34 -40 -66 -40 -72 0 -5 -10 -18 -22 -29 -23 -19 -23
-19 -5 2 9 11 17 29 17 39 0 24 -28 55 -51 55 -15 0 -11 10 21 58 27 39 47 85
63 146 13 49 27 85 30 79 4 -6 18 -13 32 -15 28 -6 54 21 56 57 0 11 3 14 6 7
3 -7 0 -25 -5 -40z m-780 8 c3 -16 1 -30 -4 -30 -4 0 -8 14 -8 30 0 17 2 30 4
30 2 0 6 -13 8 -30z m475 4 c-9 -9 -28 6 -21 18 4 6 10 6 17 -1 6 -6 8 -13 4
-17z m138 16 c3 -5 -1 -10 -9 -10 -9 0 -16 5 -16 10 0 6 4 10 9 10 6 0 13 -4
16 -10z m-795 -10 c0 -5 -5 -10 -11 -10 -5 0 -7 5 -4 10 3 6 8 10 11 10 2 0 4
-4 4 -10z m140 0 c0 -5 -7 -10 -15 -10 -8 0 -15 5 -15 10 0 6 7 10 15 10 8 0
15 -4 15 -10z m800 6 c0 -2 -8 -10 -17 -17 -16 -13 -17 -12 -4 4 13 16 21 21
21 13z m-1060 -21 c-7 -8 -17 -15 -23 -15 -6 0 -2 7 9 15 25 19 30 19 14 0z
m-103 -27 c-3 -8 -6 -5 -6 6 -1 11 2 17 5 13 3 -3 4 -12 1 -19z m189 -173 c9
-16 30 -47 46 -67 l29 -38 -25 0 c-48 0 -61 -81 -15 -95 11 -4 18 -9 15 -12
-8 -9 -56 26 -56 40 0 7 -12 29 -26 48 -73 96 -151 352 -88 289 6 -6 18 -5 34
3 25 13 25 12 47 -63 13 -41 30 -88 39 -105z m139 167 c-3 -3 -11 0 -18 7 -9
10 -8 11 6 5 10 -3 15 -9 12 -12z m588 11 c-7 -2 -21 -2 -30 0 -10 3 -4 5 12
5 17 0 24 -2 18 -5z m70 0 c-7 -2 -19 -2 -25 0 -7 3 -2 5 12 5 14 0 19 -2 13
-5z m-83 -25 c39 4 142 3 146 0 6 -7 -26 -108 -47 -150 -11 -21 -25 -38 -32
-38 -14 0 -177 154 -177 168 0 13 53 30 75 24 11 -3 27 -5 35 -4z m-492 -7 c6
0 12 -7 12 -15 0 -15 -155 -176 -170 -176 -27 0 -101 177 -79 190 9 6 188 7
237 1z m82 -107 c0 -4 -13 5 -30 21 -16 16 -30 33 -30 38 0 5 14 -5 30 -21 17
-17 30 -34 30 -38z m250 62 c0 -2 -8 -10 -17 -17 -16 -13 -17 -12 -4 4 13 16
21 21 21 13z m34 -8 c-13 -24 -37 -48 -47 -48 -6 0 2 14 18 30 31 32 41 38 29
18z m-213 -46 c-7 -2 -18 1 -23 6 -8 8 -4 9 13 5 13 -4 18 -8 10 -11z m294
-12 c12 -19 -12 -10 -31 11 -19 22 -19 22 3 10 12 -6 25 -16 28 -21z m-456 17
c-2 -1 -13 -9 -24 -17 -19 -14 -19 -14 -6 3 7 9 18 17 24 17 6 0 8 -1 6 -3z
m35 -22 c-4 -8 -10 -12 -15 -9 -6 3 -18 0 -27 -7 -13 -11 -12 -8 2 9 22 25 48
30 40 7z m366 5 c0 -5 -4 -10 -9 -10 -6 0 -13 5 -16 10 -3 6 1 10 9 10 9 0 16
-4 16 -10z m-94 -12 c57 -48 154 -155 152 -167 -3 -18 -122 -80 -155 -80 -28
-1 -31 13 -28 124 3 149 2 146 31 123z m-165 -20 c5 -82 3 -212 -3 -221 -8
-13 -72 4 -141 39 -58 30 -57 34 44 134 73 73 98 85 100 48z m-93 -10 c-8 -12
-21 -24 -29 -26 -8 -3 -3 7 10 22 30 32 39 34 19 4z m185 15 c-13 -2 -33 -2
-45 0 -13 2 -3 4 22 4 25 0 35 -2 23 -4z m167 -40 c0 -3 -9 2 -20 12 -11 10
-20 22 -20 27 0 4 9 -1 20 -12 11 -11 20 -23 20 -27z m105 17 c16 -17 16 -20
3 -15 -9 4 -19 13 -22 21 -7 19 -2 18 19 -6z m-5 -51 c0 -5 -7 -6 -15 -3 -8 4
-12 10 -9 15 3 6 2 16 -3 22 -4 7 0 4 10 -6 9 -11 17 -23 17 -28z m-280 15 c0
-8 -4 -12 -10 -9 -5 3 -10 13 -10 21 0 8 5 12 10 9 6 -3 10 -13 10 -21z m-254
-3 c-8 -12 -46 -21 -46 -11 0 5 10 11 23 13 12 2 23 5 25 6 2 0 1 -3 -2 -8z
m209 -15 c0 -15 -4 -21 -9 -16 -5 5 -6 16 -3 24 9 22 12 20 12 -8z m-185 -1
c-7 -9 -15 -13 -17 -11 -7 7 7 26 19 26 6 0 6 -6 -2 -15z m265 5 c3 -5 1 -10
-4 -10 -6 0 -11 5 -11 10 0 6 2 10 4 10 3 0 8 -4 11 -10z m211 -21 c4 -8 1 -8
-14 0 -12 6 -24 16 -28 22 -4 8 -1 8 14 0 12 -6 24 -16 28 -22z m75 12 c-6
-10 -23 -26 -38 -36 -26 -16 -25 -15 6 19 39 40 46 44 32 17z m-635 -23 c29
-31 29 -31 2 -12 -15 10 -29 25 -32 32 -8 18 -2 15 30 -20z m620 -44 c-8 -21
9 -51 34 -59 25 -8 18 -15 -60 -66 -57 -37 -167 -79 -208 -79 -13 0 -32 -5
-44 -11 -19 -10 -19 -9 3 20 20 28 21 32 6 54 l-15 23 59 13 c66 13 184 71
208 101 19 24 25 25 17 4z m68 7 c4 -5 -3 -7 -14 -4 -23 6 -26 13 -6 13 8 0
17 -4 20 -9z m-726 -26 c-3 -3 -9 2 -12 12 -6 14 -5 15 5 6 7 -7 10 -15 7 -18z
m121 -43 c34 -20 142 -53 174 -54 25 -1 26 -3 12 -18 -17 -19 -20 -51 -5 -66
16 -16 -88 0 -155 24 -33 12 -72 31 -87 42 -15 11 -31 20 -36 20 -5 0 -17 9
-26 19 -16 18 -16 20 9 45 16 16 24 33 21 42 -4 10 9 5 31 -13 21 -15 49 -34
62 -41z m591 35 c11 -5 9 -6 -4 -4 -11 1 -21 9 -23 17 -3 10 -2 11 4 4 4 -6
15 -14 23 -17z m-735 -15 c-3 -3 -11 0 -18 7 -9 10 -8 11 6 5 10 -3 15 -9 12
-12z m375 3 c0 -8 -4 -15 -10 -15 -5 0 -10 7 -10 15 0 8 5 15 10 15 6 0 10 -7
10 -15z m431 -37 c-43 -39 -56 -35 -18 5 18 18 36 31 41 28 5 -2 -5 -17 -23
-33z m-878 8 c13 -12 30 -25 38 -28 8 -3 10 -9 6 -14 -4 -4 -24 9 -45 29 -20
20 -34 37 -30 37 4 0 18 -11 31 -24z m941 -40 c-8 -26 -22 -36 -51 -36 -30 0
-29 18 4 52 20 21 29 25 40 16 8 -6 11 -19 7 -32z m-934 -33 c0 -14 -13 -16
-47 -7 -23 6 -36 47 -20 63 12 12 67 -34 67 -56z m429 57 c-6 -5 -18 -6 -26
-3 -19 8 -16 11 13 11 17 0 22 -3 13 -8z m31 -85 c0 -8 -3 -16 -7 -18 -5 -3
-8 5 -8 18 0 13 3 21 8 18 4 -2 7 -10 7 -18z m20 -87 c0 -10 -87 -10 -93 0 -3
4 17 7 44 7 27 0 49 -3 49 -7z m-6 -46 c-2 -27 -5 -31 -24 -37 -23 -7 -60 10
-60 30 0 7 12 15 28 17 41 5 57 2 56 -10z"/>
</g>
</svg>
